<?xml version="1.0" encoding="utf-8"?>
<!-- Generator: Adobe Illustrator 23.0.1, SVG Export Plug-In . SVG Version: 6.00 Build 0)  -->
<svg version="1.1" id="Layer_1" xmlns="http://www.w3.org/2000/svg" xmlns:xlink="http://www.w3.org/1999/xlink" x="0px" y="0px"
	 viewBox="0 0 10 12" style="enable-background:new 0 0 10 12;" xml:space="preserve">
<style type="text/css">
	.st0{fill-rule:evenodd;clip-rule:evenodd;fill:#8D979A;}
</style>
<path class="st0" d="M2.3,4h1.5C4,4,4.2,3.8,4.2,3.6V2.2C4.2,2,4,1.8,3.8,1.8H2.3C2.1,1.8,1.9,2,1.9,2.2v1.5C1.9,3.8,2.1,4,2.3,4z
	 M2.6,2.5h0.7v0.7H2.6V2.5z M2.3,7.5h1.5c0.2,0,0.4-0.2,0.4-0.4V5.7c0-0.2-0.2-0.4-0.4-0.4H2.3c-0.2,0-0.4,0.2-0.4,0.4v1.5
	C1.9,7.3,2.1,7.5,2.3,7.5z M2.6,6h0.7v0.7H2.6V6z M9.1,0H0.8C0.6,0,0.5,0.2,0.5,0.4v11.2c0,0.2,0.2,0.4,0.4,0.4h8.3
	c0.2,0,0.4-0.2,0.4-0.4V0.4C9.4,0.2,9.3,0,9.1,0z M8.7,11.2H1.2V0.7h7.5V11.2z M4.8,2.5h2.9v0.7H4.8V2.5z M4.8,6h2.9v0.7H4.8V6z
	 M1.9,9.2h5.8v0.7H1.9V9.2z"/>
</svg>
