<svg xmlns="http://www.w3.org/2000/svg" width="16" height="16" viewBox="0 0 16 16"><path d="M8,16A8,8,0,1,0,0,8,8.0179,8.0179,0,0,0,8,16ZM7.3032,5.44,8.8649,4.3661a.54.54,0,0,0,.2074-.6971L8.3193,1.9a6.0877,6.0877,0,0,1,5.7969,6.0984,6.8456,6.8456,0,0,1-.0559.8662A.6873.6873,0,0,0,13.853,8.77l-2.4662-.64a.4719.4719,0,0,0-.3206.0559l-2.0706.8853a.66.66,0,0,1-.922-.49L7.7353,7.1146a.4257.4257,0,0,0-.1882-.3015l-.4706-.3574C6.775,6.2293,6.85,5.7587,7.303,5.44ZM2.0149,6.7014l3.35,2.0515,1.1294.3382a.51.51,0,0,1,.3573.3206l.5456,1.4309a.4126.4126,0,0,1,.0191.1691v3.0676A6.1144,6.1144,0,0,1,1.8826,8a7.1211,7.1211,0,0,1,.1323-1.2985Z"/></svg>