<svg xmlns="http://www.w3.org/2000/svg" width="18" height="16" viewBox="0 0 18 16">
    <path d="M5.946,6.857a.3322.3322,0,0,1-.321-.295V2.286L9.563,4.424,13.5,2.286V6.562a.3314.3314,0,0,1-.321.295ZM13.5,1.276,9.562,3.429,5.626,1.196V.319A.3433.3433,0,0,1,5.947,0H13.18a.3449.3449,0,0,1,.321.319v.957Zm4.03,9.758c.235,0,.392.08.47.473v4.099a.3714.3714,0,0,1-.391.394H9.39A.3711.3711,0,0,1,9,15.606V11.507a.3714.3714,0,0,1,.391-.394h1.096v2.601h.783V9.143h2.973v1.26H12.365v.631ZM7.132,8a.809.809,0,0,1,.743.762V11.81a.7542.7542,0,0,1-.743.761H6.91l-.446,2.286L4.756,12.571H.743A.7539.7539,0,0,1,0,11.81V8.762A.7538.7538,0,0,1,.743,8H7.132Z" />
</svg>