<?xml version="1.0" encoding="utf-8"?>
<!-- Generator: Adobe Illustrator 23.0.1, SVG Export Plug-In . SVG Version: 6.00 Build 0)  -->
<svg version="1.1" id="Layer_1" xmlns="http://www.w3.org/2000/svg" xmlns:xlink="http://www.w3.org/1999/xlink" x="0px" y="0px"
	 viewBox="0 0 18 16" style="enable-background:new 0 0 18 16;" xml:space="preserve">
<style type="text/css">
	.st0{fill:#B9C2C5;}
</style>
<g>
	<path id="Combined-Shape" class="st0" d="M5.2,12.8C5.4,10.2,7,8.1,9,8.1s3.6,2.1,3.8,4.7H5.2z M17,11.9h-3.3
		c-0.2-1.1-0.7-2-1.3-2.6c0.5-0.4,1-0.7,1.6-0.7C15.5,8.6,16.7,10,17,11.9z M1,11.9C1.3,10,2.5,8.6,4,8.6c0.6,0,1.2,0.2,1.6,0.7
		C5,9.9,4.6,10.8,4.3,11.9H1z M9,7.6c-1.6,0-2.8-1.3-2.8-2.8S7.4,2,9,2s2.8,1.3,2.8,2.8S10.6,7.6,9,7.6z M3.8,8.1
		c-1,0-1.9-0.8-1.9-1.9s0.8-1.9,1.9-1.9s1.9,0.8,1.9,1.9S4.9,8.1,3.8,8.1z M14.2,8.1c-1,0-1.9-0.8-1.9-1.9s0.8-1.9,1.9-1.9
		s1.9,0.8,1.9,1.9S15.2,8.1,14.2,8.1z"/>
</g>
</svg>
