<?xml version="1.0" encoding="utf-8"?>
<!-- Generator: Adobe Illustrator 23.0.1, SVG Export Plug-In . SVG Version: 6.00 Build 0)  -->
<svg version="1.1" id="Layer_1" xmlns="http://www.w3.org/2000/svg" xmlns:xlink="http://www.w3.org/1999/xlink" x="0px" y="0px"
	 viewBox="0 0 18 16" style="enable-background:new 0 0 18 16;" xml:space="preserve">
<style type="text/css">
	.st0{fill:#8D979A;}
</style>
<path class="st0" d="M17.6,8.2c-2.1-2.6-5-3.9-8.6-3.9c-3.6,0-6.5,1.3-8.6,3.9l-0.5,0.6l0.6,0.5c3,2.3,5.9,3.5,8.4,3.5
	c2.5,0,5.2-1.1,8.2-3.3l0.9-0.7L17.6,8.2z M7.5,10.2c-1,0-1.8-0.8-1.8-1.8s0.8-1.8,1.8-1.8s1.8,0.8,1.8,1.8S8.5,10.2,7.5,10.2z
	 M5,6.5C4.5,7,4.2,7.7,4.2,8.5c0,0.6,0.2,1.1,0.4,1.6C3.8,9.7,3,9.2,2.1,8.5C2.9,7.6,3.9,7,5,6.5z M9.2,11.2
	c0.9-0.6,1.5-1.6,1.5-2.7c0-1.2-0.6-2.2-1.5-2.7c2.8,0,5,0.9,6.7,2.8C13.5,10.3,11.2,11.2,9.2,11.2z"/>
</svg>
