<?xml version="1.0" encoding="utf-8"?>
<!-- Generator: Adobe Illustrator 23.0.1, SVG Export Plug-In . SVG Version: 6.00 Build 0)  -->
<svg version="1.1" id="Layer_1" xmlns="http://www.w3.org/2000/svg" xmlns:xlink="http://www.w3.org/1999/xlink" x="0px" y="0px"
	 viewBox="0 0 24 24" style="enable-background:new 0 0 24 24;" xml:space="preserve">
<style type="text/css">
	.st0{fill:#B9C2C5;}
</style>
<path class="st0" d="M12,0C5.4,0,0,5.4,0,12s5.4,12,12,12s12-5.4,12-12S18.6,0,12,0z M12,23C6,23,1,18.1,1,12S5.9,1,12,1
	s11,4.9,11,11C23,18,18.1,23,12,23z M12.3,14.4c-0.1,0-0.2,0-0.3-0.1l-5.1-3.9c-0.2-0.2-0.3-0.5-0.1-0.7C7,9.5,7.3,9.5,7.5,9.6
	l4.3,3.3V4.3c0-0.3,0.2-0.5,0.5-0.5s0.5,0.2,0.5,0.5v9.6c0,0.2-0.1,0.3-0.3,0.4C12.4,14.4,12.4,14.4,12.3,14.4z"/>
</svg>
